<?xml version="1.0" encoding="utf-8"?>
<!-- Generator: Adobe Illustrator 19.2.1, SVG Export Plug-In . SVG Version: 6.00 Build 0)  -->
<svg version="1.1" id="Layer_1" xmlns="http://www.w3.org/2000/svg" xmlns:xlink="http://www.w3.org/1999/xlink" x="0px" y="0px"
	viewBox="0 0 40 40" style="enable-background:new 0 0 40 40;" xml:space="preserve">
<style type="text/css">
	.st0{fill:none;stroke:#000000;stroke-width:3;stroke-miterlimit:10;}
	.st1{fill:#FFFFFF;}
</style>
<circle class="st0" cx="20" cy="20" r="16.8"/>
<g>
	<polyline class="st1" points="22.9,28.8 13.7,19.6 22.9,10.4 	"/>
	<g>
		<path d="M24,27.7c-3.1-3.1-6.1-6.1-9.2-9.2c0,0.7,0,1.4,0,2.1c3.1-3.1,6.1-6.1,9.2-9.2c1.4-1.4-0.8-3.5-2.1-2.1
			c-3.1,3.1-6.1,6.1-9.2,9.2c-0.6,0.6-0.6,1.5,0,2.1c3.1,3.1,6.1,6.1,9.2,9.2C23.2,31.2,25.3,29.1,24,27.7L24,27.7z"/>
	</g>
</g>
</svg>
